<?xml version="1.0" encoding="UTF-8"?>
<svg id="Capa_1" xmlns="http://www.w3.org/2000/svg" version="1.1" viewBox="0 0 100 100">
  <!-- Generator: Adobe Illustrator 29.6.0, SVG Export Plug-In . SVG Version: 2.1.1 Build 142)  -->
  <defs>
    <style>
      .st0 {
        fill: #fff;
      }
    </style>
  </defs>
  <path class="st0" d="M94.24,45.49l-89.02.06-.28.03c-2.26.59-3.72,2.56-3.53,4.8.16,1.87,1.54,3.88,4.39,4.12h88.53c2.95-.24,4.3-2.5,4.31-4.5,0-1.99-1.33-4.25-4.39-4.52Z"/>
  <path class="st0" d="M1.43,30.04l-.02.16.03.16c.43,2.21,2.18,3.73,4.35,3.78.04,0,.08,0,.12,0,2.11,0,3.88-1.42,4.44-3.71.27-2.9.14-6.01.01-9.03-.13-3.03-.26-6.15.03-8.93.13-1.22.96-1.98,2.28-2.1,2.73-.24,5.87-.09,8.91.06,3.56.18,7.24.35,10.43-.08,2.23-.3,3.81-2.12,3.83-4.41.02-2.32-1.55-4.19-4.05-4.54-2.93.21-6.17.08-9.31-.05-3.79-.16-7.7-.32-11.23.1C.48,2.75.99,13.86,1.4,22.8c.12,2.7.24,5.25.03,7.25Z"/>
  <path class="st0" d="M68.46,10.4c3,.27,6.27.12,9.44-.03,3.27-.14,6.65-.3,9.64.02,1.15.12,1.97.94,2.09,2.09.3,2.75.16,5.83.04,8.82-.13,3.11-.27,6.33.09,9.51.66,2.34,2.61,3.34,4.37,3.34.13,0,.26,0,.39-.02,1.84-.16,3.82-1.47,4.1-4.28-.21-1.97-.1-4.5.02-7.17.37-8.49.87-20.11-10.04-21.25-3.59-.38-7.53-.22-11.32-.06-3.1.12-6.3.25-9.22.08h-.18s-.17.03-.17.03c-2.27.59-3.72,2.56-3.53,4.8.16,1.87,1.54,3.88,4.29,4.12Z"/>
  <path class="st0" d="M32.33,89.71c-3.26-.34-6.76-.2-10.15-.05-3.28.14-6.66.28-9.69-.04-1.15-.12-1.97-.94-2.09-2.09-.3-2.78-.16-5.91-.03-8.94.13-3.01.26-6.13-.04-9.17-.58-2.47-2.74-3.91-5.29-3.49-1.57.25-3.05,1.6-3.45,3.13l-.04.15v.16c.06,2.44-.04,5-.15,7.7-.15,3.8-.31,7.73.02,11.31.82,8.97,8.4,10.42,16.17,10.42,1.96,0,3.93-.09,5.81-.18,2.98-.14,5.8-.28,8.15,0,2.67-.19,4.08-2.15,4.28-4,.21-1.86-.73-4.08-3.5-4.9Z"/>
  <path class="st0" d="M98.61,69.9c-.16-1.3-.79-2.42-1.77-3.15-.99-.75-2.27-1.04-3.59-.82-1.8.29-3.35,1.91-3.6,3.77-.4,2.93-.23,6.28-.07,9.53.14,2.77.28,5.63.06,8.11-.12,1.32-.88,2.15-2.1,2.28-2.99.32-6.36.17-9.63.02-3.16-.14-6.44-.3-9.44-.03-2.27.2-3.99,1.77-4.27,3.91-.28,2.14.95,4.1,3.08,4.88l.2.07h.21c2.71-.08,5.67.04,8.54.15,2.31.09,4.67.19,6.98.19,1.77,0,3.51-.05,5.18-.21,11.12-1.02,10.62-12.73,10.25-21.29-.11-2.67-.22-5.18-.02-7.41Z"/>
</svg>