<?xml version="1.0" encoding="UTF-8"?>
<svg id="Capa_1" xmlns="http://www.w3.org/2000/svg" version="1.1" viewBox="0 0 100 100">
  <!-- Generator: Adobe Illustrator 29.6.0, SVG Export Plug-In . SVG Version: 2.1.1 Build 142)  -->
  <defs>
    <style>
      .st0 {
        fill: #fff;
      }
    </style>
  </defs>
  <path class="st0" d="M50,1.09C22.99,1.09,1.09,22.99,1.09,50s21.9,48.91,48.91,48.91,48.91-21.9,48.91-48.91S77.01,1.09,50,1.09ZM50,89.23c-21.63,0-39.23-17.6-39.23-39.23S28.37,10.77,50,10.77s39.23,17.6,39.23,39.23-17.6,39.23-39.23,39.23ZM73.27,29.7c-1.04-.84-2.35-1.22-3.68-1.08-1.33.14-2.53.8-3.37,1.84l-22.81,28.28-9.84-10.62c-1.88-2.03-5.06-2.15-7.09-.27-.98.91-1.55,2.15-1.6,3.49-.05,1.34.42,2.62,1.33,3.6l13.78,14.88c.95,1.02,2.29,1.61,3.68,1.61h.17c1.46-.05,2.82-.73,3.73-1.87l26.45-32.79c.84-1.04,1.23-2.35,1.08-3.68-.14-1.33-.8-2.53-1.84-3.37Z"/>
</svg>