<?xml version="1.0" encoding="UTF-8"?>
<svg id="Capa_1" xmlns="http://www.w3.org/2000/svg" version="1.1" viewBox="0 0 100 100">
  <!-- Generator: Adobe Illustrator 29.6.0, SVG Export Plug-In . SVG Version: 2.1.1 Build 142)  -->
  <path d="M50,2.49C23.76,2.49,2.49,23.76,2.49,50s21.27,47.51,47.51,47.51,47.51-21.27,47.51-47.51S76.24,2.49,50,2.49ZM50,88.11c-21.01,0-38.11-17.09-38.11-38.11S28.99,11.89,50,11.89s38.11,17.09,38.11,38.11-17.09,38.11-38.11,38.11ZM72.6,30.28c-1.01-.82-2.28-1.19-3.58-1.05-1.29.14-2.46.77-3.28,1.79l-22.16,27.47-9.55-10.32c-1.82-1.97-4.91-2.09-6.89-.26-.95.88-1.51,2.09-1.56,3.39-.05,1.3.41,2.54,1.29,3.5l13.38,14.46c.92.99,2.22,1.56,3.58,1.56h.17c1.42-.05,2.74-.71,3.63-1.81l25.7-31.85c.82-1.01,1.19-2.28,1.05-3.58-.14-1.29-.77-2.46-1.79-3.27Z"/>
</svg>