<?xml version="1.0" encoding="UTF-8"?>
<svg id="Capa_1" xmlns="http://www.w3.org/2000/svg" version="1.1" viewBox="0 0 96.62 96">
  <!-- Generator: Adobe Illustrator 29.6.0, SVG Export Plug-In . SVG Version: 2.1.1 Build 142)  -->
  <path d="M90.92,43.66l-85.75.06-.27.03c-2.18.56-3.58,2.47-3.4,4.62.15,1.81,1.49,3.73,4.22,3.97h85.28c2.84-.23,4.14-2.41,4.15-4.33,0-1.92-1.28-4.09-4.23-4.35Z"/>
  <path d="M1.52,28.77l-.02.16.03.16c.42,2.12,2.1,3.59,4.19,3.64.04,0,.08,0,.11,0,2.04,0,3.74-1.36,4.28-3.58.26-2.79.14-5.79.01-8.69-.12-2.91-.25-5.93.03-8.61.12-1.17.92-1.91,2.19-2.02,2.63-.23,5.66-.08,8.58.06,3.43.17,6.97.34,10.05-.07,2.15-.29,3.67-2.04,3.68-4.25.02-2.24-1.49-4.03-3.91-4.38-2.82.2-5.95.07-8.97-.05-3.65-.16-7.42-.31-10.82.1C.61,2.48,1.1,13.19,1.49,21.79c.12,2.6.23,5.06.03,6.98Z"/>
  <path d="M66.09,9.85c2.89.26,6.04.11,9.09-.03,3.15-.14,6.41-.29,9.28.02,1.1.12,1.9.91,2.01,2.02.29,2.65.16,5.62.04,8.49-.13,3-.26,6.1.09,9.16.64,2.25,2.51,3.22,4.21,3.22.12,0,.25,0,.37-.02,1.77-.15,3.68-1.41,3.95-4.12-.2-1.9-.09-4.33.02-6.91.35-8.18.84-19.38-9.68-20.47-3.46-.36-7.25-.21-10.91-.06-2.99.12-6.07.24-8.88.08h-.17s-.16.03-.16.03c-2.18.57-3.58,2.47-3.4,4.62.15,1.81,1.49,3.73,4.13,3.97Z"/>
  <path d="M31.29,86.25c-3.14-.33-6.51-.19-9.78-.05-3.16.13-6.42.27-9.33-.04-1.1-.12-1.9-.91-2.01-2.02-.29-2.68-.16-5.69-.03-8.61.12-2.9.25-5.9-.04-8.84-.56-2.37-2.64-3.77-5.09-3.36-1.51.24-2.94,1.54-3.32,3.02l-.04.14v.15c.06,2.35-.04,4.81-.15,7.42-.15,3.66-.3,7.45.02,10.9.79,8.64,8.09,10.04,15.58,10.04,1.89,0,3.79-.09,5.6-.17,2.87-.14,5.58-.27,7.85,0,2.57-.19,3.93-2.07,4.13-3.86.2-1.79-.7-3.93-3.37-4.72Z"/>
  <path d="M95.14,67.17c-.16-1.25-.76-2.33-1.71-3.04-.96-.72-2.19-1-3.46-.79-1.73.28-3.23,1.84-3.47,3.63-.38,2.82-.22,6.05-.07,9.18.13,2.67.27,5.42.06,7.81-.11,1.27-.85,2.07-2.02,2.19-2.88.31-6.13.16-9.28.01-3.04-.14-6.2-.29-9.09-.02-2.19.19-3.84,1.71-4.11,3.76-.27,2.06.92,3.95,2.97,4.71l.19.07h.2c2.61-.08,5.47.04,8.23.15,2.23.09,4.5.18,6.73.18,1.7,0,3.38-.05,4.99-.2,10.71-.98,10.23-12.27,9.87-20.51-.11-2.57-.21-4.99-.02-7.14Z"/>
</svg>