<?xml version="1.0" encoding="UTF-8"?>
<svg id="Capa_1" xmlns="http://www.w3.org/2000/svg" version="1.1" viewBox="0 0 100 82.23">
  <!-- Generator: Adobe Illustrator 29.6.0, SVG Export Plug-In . SVG Version: 2.1.1 Build 142)  -->
  <circle cx="50" cy="41.12" r="18.61"/>
  <path d="M50,79.93c-24.97,0-39.1-16.94-45.3-27.04-4.49-7.26-4.49-16.29,0-23.56C10.9,19.25,25.03,2.3,50,2.3s39.1,16.94,45.3,27.03c4.49,7.27,4.49,16.29,0,23.56-6.19,10.09-20.32,27.03-45.3,27.03ZM50,10.82c-20.83,0-32.77,14.4-38.04,22.98-2.79,4.52-2.79,10.11,0,14.62,5.28,8.59,17.22,22.99,38.05,22.99s32.77-14.4,38.04-22.98c2.79-4.52,2.79-10.11,0-14.62h0c-5.27-8.59-17.22-22.99-38.04-22.99Z"/>
</svg>