<?xml version="1.0" encoding="UTF-8"?>
<svg id="Capa_1" xmlns="http://www.w3.org/2000/svg" version="1.1" viewBox="0 0 103.52 144.17">
  <!-- Generator: Adobe Illustrator 29.6.0, SVG Export Plug-In . SVG Version: 2.1.1 Build 142)  -->
  <defs>
    <style>
      .st0 {
        fill: #ffcd3b;
      }

      .st1 {
        fill: #fbba00;
      }
    </style>
  </defs>
  <g>
    <path class="st1" d="M49.72,88.82l45.99-47.17c2.82-2.89,2.74-7.52-.17-10.31l-22.75-21.83c-2.9-2.78-7.5-2.68-10.27.22l-20.64,21.55c-2.73,2.85-2.69,7.37.11,10.16l9.29,9.3c2.79,2.79,2.84,7.3.12,10.15l-13.88,14.52c-.4.42-.76.89-1.05,1.4-.32.55-.75,1.36-1.19,2.31-2.51-1.25-5.33-1.95-8.31-1.95-10.32,0-18.71,8.39-18.71,18.71,0,5.16,2.16,10.14,5.93,13.67-1.58.49-2.67.87-2.67.87l25.01,25.59c1,1,3.64,1,5.27-.62l13.67-13.88c1.63-1.63,1.63-4.27,0-5.89l-11.38-11.38c-.08-.08-.17-.15-.25-.23,1.19-2.48,1.84-5.24,1.84-8.11,0-1.67-.22-3.29-.63-4.83.28-.05.57-.1.87-.16,1.45-.28,2.79-1,3.82-2.06ZM63.99,35.87l3.89-3.89c.5-.5,1.15-.74,1.8-.74s1.3.25,1.8.74l3.89,3.89c.99.99.99,2.6,0,3.59l-3.89,3.89c-.48.48-1.12.75-1.8.75-.34,0-.67-.07-.97-.19-.3-.13-.58-.31-.82-.55l-3.89-3.89c-.99-.99-.99-2.6,0-3.59ZM26.95,103.27c-4.08,0-7.4-3.32-7.4-7.4s3.32-7.4,7.4-7.4,7.4,3.32,7.4,7.4-3.32,7.4-7.4,7.4Z"/>
    <path class="st0" d="M38.58,137.94c-1.19,0-2.27-.38-2.95-1.06l-26.42-27.02,1.88-.65s.28-.1.77-.26c-3.12-3.61-4.88-8.27-4.88-13.08,0-11.01,8.96-19.97,19.97-19.97,2.69,0,5.28.52,7.72,1.55.26-.5.49-.93.69-1.27.34-.59.75-1.14,1.23-1.64l13.88-14.52c2.24-2.34,2.19-6.1-.1-8.39l-9.29-9.3c-3.26-3.25-3.31-8.6-.13-11.92l20.64-21.55c1.58-1.65,3.7-2.58,5.98-2.63,2.32-.04,4.44.8,6.08,2.37l22.75,21.83c1.65,1.58,2.58,3.72,2.62,6.01s-.82,4.45-2.42,6.09l-45.99,47.17c-1.13,1.15-2.53,1.95-4.07,2.33.25,1.26.37,2.55.37,3.84,0,2.73-.53,5.35-1.58,7.82l11.01,11.01c1.03,1.03,1.59,2.39,1.59,3.84s-.57,2.81-1.59,3.84l-13.66,13.87c-.97.97-2.27,1.56-3.67,1.67-.15.01-.3.02-.45.02ZM13.83,110.97l23.6,24.14c.15.15.64.35,1.4.3.79-.06,1.54-.4,2.07-.93l13.66-13.87c.55-.55.86-1.28.86-2.06s-.3-1.51-.85-2.05l-12.3-12.17.42-.88c1.14-2.37,1.71-4.91,1.71-7.57,0-1.52-.2-3.04-.59-4.51l-.36-1.34,2.21-.38c1.2-.23,2.29-.82,3.16-1.7l45.99-47.17c1.13-1.15,1.73-2.68,1.7-4.29-.03-1.61-.68-3.11-1.84-4.23l-22.75-21.83c-1.16-1.11-2.68-1.69-4.28-1.67-1.6.03-3.1.69-4.21,1.85l-20.64,21.55c-2.24,2.34-2.2,6.1.09,8.39l9.29,9.3c3.25,3.25,3.31,8.59.14,11.92l-13.88,14.52c-.34.35-.63.74-.86,1.15-.3.53-.72,1.3-1.14,2.21l-.55,1.18-1.16-.58c-2.42-1.21-5.03-1.82-7.75-1.82-9.62,0-17.45,7.83-17.45,17.45,0,4.81,2.02,9.46,5.53,12.74l1.59,1.48-2.07.64c-.26.08-.5.16-.72.23ZM26.96,104.53c-4.78,0-8.66-3.89-8.66-8.66s3.89-8.66,8.66-8.66,8.66,3.88,8.66,8.66-3.88,8.66-8.66,8.66ZM26.96,89.74c-3.38,0-6.14,2.75-6.14,6.14s2.75,6.14,6.14,6.14,6.14-2.75,6.14-6.14-2.75-6.14-6.14-6.14ZM69.68,45.36c-.51,0-1-.1-1.46-.29-.46-.19-.87-.47-1.23-.83l-3.89-3.89c-.72-.72-1.11-1.67-1.11-2.69s.4-1.97,1.11-2.69l3.89-3.89c1.44-1.44,3.94-1.44,5.38,0l3.89,3.89c1.48,1.48,1.48,3.9,0,5.38l-3.89,3.89c-.71.72-1.67,1.12-2.69,1.12ZM69.68,32.49c-.34,0-.66.13-.91.38l-3.89,3.89c-.24.24-.37.56-.37.9s.13.66.37.9l3.89,3.89c.12.12.26.22.41.28.46.19,1.03.09,1.39-.28l3.9-3.9c.24-.24.37-.56.37-.9s-.13-.66-.37-.91l-3.89-3.89c-.24-.24-.56-.38-.91-.38Z"/>
  </g>
  <g>
    <path d="M36.23,93.33c-.75-2.73-2.67-4.98-5.19-6.16-1.24-.58-2.62-.91-4.08-.91-5.31,0-9.62,4.32-9.62,9.62,0,4.08,2.56,7.58,6.15,8.97,1.08.42,2.25.65,3.47.65s2.45-.24,3.55-.68c3.55-1.41,6.07-4.89,6.07-8.94,0-.88-.12-1.74-.34-2.55ZM26.95,100.49c-2.55,0-4.62-2.07-4.62-4.62s2.07-4.62,4.62-4.62,4.62,2.07,4.62,4.62-2.07,4.62-4.62,4.62Z"/>
    <path d="M97.49,43.4c1.83-1.88,2.82-4.36,2.77-6.98-.04-2.62-1.11-5.07-3-6.88l-22.75-21.83c-1.88-1.81-4.36-2.77-6.97-2.72-2.61.06-5.04,1.12-6.84,3.01l-20.64,21.55c-1.78,1.85-2.74,4.29-2.71,6.86.03,2.57,1.04,4.98,2.86,6.8l9.29,9.29c1.81,1.82,1.85,4.8.07,6.66l-13.88,14.52-.11.11c-2.68-1.05-5.59-1.63-8.64-1.63-13.07,0-23.7,10.63-23.7,23.71,0,6,2.3,11.8,6.37,16.17.03.04.07.08.1.11l.16.16.3.3s0,0,0,0l3.44,3.52.2.2,20.92,21.39s.01.01.02.02c.91.92,2.28,1.42,3.81,1.42.18,0,.37,0,.56-.02,1.69-.13,3.27-.85,4.45-2.04l13.66-13.86c1.26-1.26,1.95-2.93,1.95-4.71s-.69-3.45-1.95-4.71l-8.51-8.51c1.26-2.92,1.95-6.12,1.95-9.44,0-1.45-.13-2.86-.38-4.24.43-.31.84-.67,1.23-1.06l45.99-47.17ZM53.69,117.36c.31.31.49.73.49,1.18s-.17.86-.5,1.19l-13.65,13.86c-.6.6-1.49.65-1.82.54l-20.56-20.98-2.93-3s-.05-.08-.08-.11h0c-.1-.16-.22-.3-.36-.42-.25-.23-.49-.46-.73-.71-.44-.45-.85-.93-1.24-1.42-2.61-3.29-4.06-7.4-4.06-11.63,0-10.32,8.39-18.71,18.71-18.71,2.1,0,4.12.35,6,.99,1.6.54,3.1,1.3,4.48,2.23,2.99,2.02,5.36,4.89,6.77,8.26.64,1.52,1.09,3.15,1.31,4.85h0c.1.78.15,1.57.15,2.38,0,1.97-.3,3.89-.88,5.7-.52,1.65-1.27,3.21-2.23,4.65-1.75,2.63-4.17,4.82-7.11,6.33-.75.39-1.23,1.1-1.34,1.89-.07.49,0,1,.25,1.48.44.87,1.32,1.36,2.23,1.36.38,0,.77-.09,1.13-.27,3.41-1.74,6.28-4.22,8.43-7.19l7.55,7.55ZM48.65,86.33c-1.81-4.12-4.77-7.62-8.46-10.12l13-13.6c1.77-1.86,2.73-4.29,2.7-6.86-.03-2.57-1.04-4.98-2.86-6.79l-9.29-9.29c-1.82-1.82-1.85-4.81-.07-6.66l20.64-21.55c.88-.92,2.07-1.44,3.34-1.47.03,0,.07,0,.1,0,1.24,0,2.4.47,3.3,1.33l22.75,21.83c.92.89,1.44,2.08,1.46,3.36.02,1.28-.46,2.49-1.35,3.4l-45.26,46.42Z"/>
    <path d="M74.81,29.06c-2.83-2.83-7.44-2.83-10.27,0l-3.46,3.47c-2.83,2.83-2.83,7.44,0,10.27l3.46,3.47c1.37,1.37,3.2,2.13,5.14,2.13s3.76-.76,5.14-2.13l3.46-3.47c2.83-2.83,2.83-7.44,0-10.27l-3.46-3.47ZM74.74,39.26l-3.46,3.46c-.43.43-1,.66-1.6.66-.3,0-.6-.06-.87-.17-.27-.11-.52-.28-.73-.49l-3.46-3.46c-.88-.88-.88-2.32,0-3.2l3.46-3.46c.44-.44,1.02-.66,1.6-.66s1.16.22,1.6.66l3.46,3.46c.88.88.88,2.32,0,3.2Z"/>
  </g>
</svg>