<?xml version="1.0" encoding="UTF-8"?>
<svg id="Capa_1" xmlns="http://www.w3.org/2000/svg" version="1.1" viewBox="0 0 100 100">
  <!-- Generator: Adobe Illustrator 29.6.0, SVG Export Plug-In . SVG Version: 2.1.1 Build 142)  -->
  <path d="M50,10.39c9.17,0,17.79,3.57,24.28,10.06l5.27,5.27c13.39,13.39,13.39,35.17,0,48.55l-5.27,5.27c-6.48,6.48-15.11,10.06-24.28,10.06s-17.79-3.57-24.28-10.06l-5.27-5.27c-13.39-13.39-13.39-35.17,0-48.55l5.27-5.27c6.48-6.48,15.11-10.06,24.28-10.06M50,2.22c-10.88,0-21.76,4.15-30.06,12.45l-5.27,5.27C-1.93,36.54-1.93,63.46,14.67,80.06l5.27,5.27c8.3,8.3,19.18,12.45,30.06,12.45s21.76-4.15,30.06-12.45l5.27-5.27c16.6-16.6,16.6-43.52,0-60.12l-5.27-5.27c-8.3-8.3-19.18-12.45-30.06-12.45h0Z"/>
  <path d="M62.78,62.78c-7.05,7.05-18.51,7.05-25.57,0-7.05-7.05-7.05-18.51,0-25.57s18.51-7.05,25.57,0c7.05,7.05,7.05,18.51,0,25.57Z"/>
</svg>