<?xml version="1.0" encoding="UTF-8"?>
<svg id="Capa_1" xmlns="http://www.w3.org/2000/svg" version="1.1" viewBox="0 0 100 100">
  <!-- Generator: Adobe Illustrator 29.6.0, SVG Export Plug-In . SVG Version: 2.1.1 Build 142)  -->
  <path d="M50,1.45C23.18,1.45,1.45,23.18,1.45,50s21.74,48.55,48.55,48.55,48.55-21.74,48.55-48.55S76.82,1.45,50,1.45ZM50,88.94c-21.47,0-38.94-17.47-38.94-38.94S28.53,11.06,50,11.06s38.94,17.47,38.94,38.94-17.47,38.94-38.94,38.94ZM73.1,29.85c-1.04-.84-2.33-1.21-3.66-1.08-1.32.14-2.51.79-3.35,1.83l-22.65,28.07-9.76-10.55c-1.86-2.01-5.02-2.14-7.04-.27-.98.9-1.54,2.13-1.59,3.46-.05,1.33.42,2.6,1.32,3.58l13.68,14.77c.94,1.01,2.27,1.6,3.65,1.6h.17c1.45-.05,2.8-.73,3.71-1.85l26.26-32.55c.84-1.04,1.22-2.33,1.08-3.66-.14-1.32-.79-2.51-1.83-3.35Z"/>
</svg>