<?xml version="1.0" encoding="UTF-8"?>
<svg id="Capa_1" xmlns="http://www.w3.org/2000/svg" version="1.1" viewBox="0 0 100 100">
  <!-- Generator: Adobe Illustrator 29.6.0, SVG Export Plug-In . SVG Version: 2.1.1 Build 142)  -->
  <path d="M95.42,38.19c-2.5-4.08-6.3-9.26-11.57-14l9.69-9.69c2.22-2.22,2.22-5.82,0-8.05-2.22-2.22-5.82-2.22-8.05,0l-10.98,10.98c-6.63-3.76-14.75-6.35-24.52-6.35-25.04,0-39.21,16.99-45.42,27.1-4.51,7.29-4.51,16.34,0,23.62,2.5,4.08,6.3,9.26,11.57,14.01l-9.69,9.69c-2.22,2.22-2.22,5.82,0,8.05,1.11,1.11,2.57,1.67,4.02,1.67s2.91-.56,4.02-1.67l10.98-10.98c6.63,3.76,14.75,6.35,24.52,6.35,25.04,0,39.21-16.99,45.42-27.1,4.5-7.29,4.5-16.34,0-23.62ZM11.85,57.32c-2.79-4.52-2.79-10.13,0-14.66,5.28-8.61,17.26-23.04,38.15-23.04,7.04,0,13.07,1.65,18.17,4.15l-9.64,9.64c-2.56-1.32-5.46-2.08-8.54-2.08-10.31,0-18.66,8.36-18.66,18.66,0,3.08.76,5.98,2.08,8.54l-11.21,11.21c-4.74-4.17-8.14-8.81-10.36-12.42ZM88.15,57.33c-5.28,8.61-17.27,23.04-38.15,23.04-7.04,0-13.07-1.65-18.18-4.15l9.64-9.64c2.56,1.32,5.46,2.08,8.54,2.08,10.31,0,18.66-8.36,18.66-18.66,0-3.08-.76-5.98-2.08-8.54l11.21-11.21c4.74,4.17,8.14,8.8,10.36,12.41h0c2.79,4.53,2.79,10.14,0,14.67Z"/>
</svg>