<?xml version="1.0" encoding="UTF-8"?>
<svg id="Capa_1" xmlns="http://www.w3.org/2000/svg" version="1.1" viewBox="0 0 100 100">
  <!-- Generator: Adobe Illustrator 29.6.0, SVG Export Plug-In . SVG Version: 2.1.1 Build 142)  -->
  <path d="M61.75,50l33.6-33.6c3.24-3.24,3.24-8.51,0-11.75-3.24-3.24-8.51-3.24-11.75,0l-33.6,33.6L16.4,4.65c-3.24-3.24-8.51-3.24-11.75,0-1.57,1.57-2.44,3.66-2.44,5.88s.87,4.31,2.44,5.88l33.6,33.6L4.65,83.6c-1.57,1.57-2.44,3.66-2.44,5.88s.87,4.31,2.43,5.87c3.13,3.14,8.62,3.14,11.75,0l33.6-33.6,33.6,33.6c1.57,1.57,3.66,2.43,5.88,2.43s4.31-.86,5.88-2.43c3.24-3.24,3.24-8.51,0-11.75l-33.6-33.6Z"/>
</svg>