<?xml version="1.0" encoding="UTF-8"?>
<svg id="Capa_1" xmlns="http://www.w3.org/2000/svg" version="1.1" viewBox="0 0 100 100">
  <!-- Generator: Adobe Illustrator 29.6.0, SVG Export Plug-In . SVG Version: 2.1.1 Build 142)  -->
  <defs>
    <style>
      .st0 {
        fill: #fff;
      }

      .st1 {
        fill: #fdc300;
      }
    </style>
  </defs>
  <rect class="st1" x="1.19" y="1.19" width="97.62" height="97.62" rx="47.78" ry="47.78"/>
  <g>
    <circle class="st0" cx="50" cy="43.93" r="8.33" transform="translate(-9.72 73.31) rotate(-67.5)"/>
    <path class="st0" d="M50.01,20.02h-.01c-14.28.02-25.91,11.65-25.93,25.93,0,6.63,4.13,15.35,13,27.47,3,4.11,7.84,6.57,12.94,6.57,3.41,0,6.68-1.07,9.44-3.08,1.34-.98,2.52-2.15,3.49-3.49,8.86-12.11,13-20.84,13-27.46-.02-14.29-11.65-25.92-25.93-25.93ZM58.15,69.91c-.62.84-1.36,1.59-2.2,2.2-1.79,1.31-3.88,1.94-5.94,1.94-3.11,0-6.18-1.44-8.16-4.14-7.87-10.75-11.86-18.81-11.86-23.96.01-11.04,8.96-19.99,20-20,11.04.01,19.99,8.96,20,20,0,5.15-3.99,13.21-11.86,23.96Z"/>
  </g>
</svg>