<?xml version="1.0" encoding="UTF-8"?>
<svg id="Capa_1" xmlns="http://www.w3.org/2000/svg" version="1.1" viewBox="0 0 100 100">
  <!-- Generator: Adobe Illustrator 29.6.0, SVG Export Plug-In . SVG Version: 2.1.1 Build 142)  -->
  <path d="M98.05,90.96l-17.62-17.62c6.27-7.74,10.04-17.59,10.04-28.3C90.47,20.2,70.27,0,45.44,0S.4,20.2.4,45.04s20.2,45.04,45.04,45.04c10.31,0,19.81-3.49,27.41-9.34l17.71,17.71c1.03,1.03,2.39,1.55,3.75,1.55s2.71-.52,3.75-1.55c2.07-2.07,2.07-5.42,0-7.49ZM45.44,79.48c-18.99,0-34.45-15.45-34.45-34.45S26.44,10.59,45.44,10.59s34.45,15.45,34.45,34.45-15.45,34.45-34.45,34.45Z"/>
</svg>