<?xml version="1.0" encoding="UTF-8"?>
<svg id="Capa_1" xmlns="http://www.w3.org/2000/svg" version="1.1" viewBox="0 0 109.09 87.32">
  <!-- Generator: Adobe Illustrator 29.6.0, SVG Export Plug-In . SVG Version: 2.1.1 Build 142)  -->
  <path d="M.62,27.15c.68-4.63,3.89-8.62,8.73-9.06h26.65c1.33-5.8,1.13-13.23,7.38-16.1.87-.4,2.32-.86,3.26-.95,3.78-.37,11.36-.33,15.17,0,4.26.36,7.73,3.53,8.88,7.55.89,3.09,1.22,6.39,1.96,9.51h6.73c-.22-3.42.55-7.44,4.37-8.36,5.71-1.38,9.81,2.71,9.32,8.37,2.34.07,4.66-.23,6.95.31,4.4,1.03,8.18,5.09,8.43,9.68l-.03,49.91c-.77,4.92-5.11,8.22-9.97,8.56H8.73c-4.36-.52-7.65-4.12-8.11-8.43V27.15ZM47.12,6.14c-2.79.4-3.85,2.34-4.48,4.79-.83,3.21-1.13,7.24-2.15,10.28-.39,1.16-1.01,1.83-2.26,1.95-8.82.81-18.93-.76-27.81,0-3.49.3-4.44,2.33-4.75,5.57.76,15.61-.98,32.12,0,47.62.2,3.1.93,4.91,4.32,5.16h87.85c3.03-.24,5.54-1.87,5.58-5.16V28.93c-.28-3.57-2.58-5.35-6.02-5.78l-27.71-.1c-.72-.36-1.3-1.04-1.57-1.8-1.61-4.62-.78-14.54-6.95-15.16-3-.3-11.16-.37-14.05.05Z"/>
  <path d="M17,7.82c2.6-.38,10.97-.37,13.61-.03,3.53.45,3.53,4.77,0,5.22-2.79.35-10.62.33-13.43,0-3.59-.42-3.63-4.68-.18-5.19Z"/>
  <path d="M50.49,25.31c21.12-1.87,36.09,20.12,25.78,38.83-9.99,18.13-36.18,18.05-46.06-.14-8.83-16.24,1.83-37.06,20.29-38.7ZM51.55,30.37c-16.62,1.38-25.22,20.75-15,34.04,9.2,11.97,27.92,10.49,35.22-2.66,8.18-14.72-3.51-32.77-20.22-31.39Z"/>
  <path d="M52.18,34.37c13.41-.93,22.49,13.51,16.09,25.35-6.03,11.17-22.11,11.8-29.19,1.31s.02-25.76,13.1-26.67ZM51.33,39.63c-4.62.58-8.89,4.86-9.79,9.38-2.19,11.01,10.65,18.89,19.32,11.74,9.36-7.72,2.8-22.66-9.53-21.12Z"/>
</svg>