<?xml version="1.0" encoding="UTF-8"?>
<svg id="Capa_1" xmlns="http://www.w3.org/2000/svg" version="1.1" viewBox="0 0 107.84 107.15">
  <!-- Generator: Adobe Illustrator 29.6.0, SVG Export Plug-In . SVG Version: 2.1.1 Build 142)  -->
  <path d="M54.83,102.99c-.89-.1-4.24-.13-4.86.32-1.18.85-.71,2.74.62,3.2h4.76c1.55-.9,1.45-3.29-.51-3.52Z"/>
  <path d="M43.88,102.98c-.91-.09-4.03-.12-4.66.33-1.1.79-.74,2.61.41,3.2h4.76c1.87-.83,1.67-3.33-.5-3.53Z"/>
  <path d="M76.14,102.99c-1.04-.1-3.81-.16-4.56.42-1.32,1.03-.68,2.35.52,3.11h4.76c1.83-1.1,1.51-3.32-.71-3.53Z"/>
  <path d="M88.22,103.32c-.55-.46-3.79-.41-4.65-.33-2.22.2-2.54,2.42-.71,3.53h4.34c1.42-.37,2.28-2.14,1.03-3.2Z"/>
  <path d="M65.78,103.01c-.81-.13-2.86-.1-3.72-.02-2.35.21-2.59,2.35-.71,3.53h4.76c1.48-.77,1.45-3.23-.32-3.5Z"/>
  <path d="M34.16,103.41c-.75-.59-3.52-.51-4.56-.42-2.17.2-2.35,2.45-.71,3.53h4.76c1.2-.76,1.84-2.08.52-3.11Z"/>
  <path d="M20.5,102.99c-2.23.21-2.54,2.42-.71,3.53h2.89c2.69-2.16.67-3.8-2.18-3.53Z"/>
  <path d="M68.48,55.41c1.24.13,4.15.25,4.7-1.08,1.2-2.96-3.31-2.85-5.06-2.58-2.63.41-2.56,3.37.36,3.67Z"/>
  <path d="M89.98,55.41c1.77.18,5.65.28,4.81-2.54-.43-1.46-3.98-1.31-5.17-1.13-2.56.4-2.52,3.38.36,3.67Z"/>
  <path d="M79.23,55.41c1.24.12,4.15.25,4.7-1.08,1.2-2.96-3.31-2.85-5.06-2.58-2.56.4-2.52,3.38.36,3.67Z"/>
  <path d="M93.96,86.49c-2.92.65.27,4.74.67,6.28.94,1.07,2.84.42,3.08-.88.16-.89-1.28-4.15-1.92-4.82-.51-.54-1.08-.74-1.82-.57Z"/>
  <path d="M94.01,97.3c-.43,1.56-3.9,4.12-1.85,5.59,1.52,1.09,2.69-.32,3.51-1.45.8-1.1,2.08-2.96.97-4.17-.63-.69-2-.67-2.63.03Z"/>
  <path d="M51.98,75.45c1.81.38,2.23-1.85,2.84-3.07.44-.88,1.18-1.07.9-2.33-.17-.77-1.09-1.42-1.88-1.35-1.83.18-4.93,6.11-1.86,6.75Z"/>
  <path d="M104.51,60.83c-1.39.23-1.31,1.44-1.85,2.31-.69,1.13-2.29,2.31-1,3.77,1.91,2.15,5-2.65,4.9-4.32-.06-1-1.04-1.92-2.05-1.75Z"/>
  <path d="M103.58,57.65c1.22-.23,1.67-1.31,1.3-2.45-.35-1.1-3.61-3.16-4.72-3.05-1.38.13-2.13,1.89-1.19,2.96.35.4,1.75.98,2.35,1.37.81.52,1.03,1.4,2.26,1.17Z"/>
  <path d="M89.61,82.47c-.96-.52-4.18-.83-5.17-.54-.6.18-1.01,1.12-.99,1.71.11,2.46,3.86,1.51,5.48,2.17,1.6-.34,2.27-2.49.68-3.35Z"/>
  <path d="M63.73,50.87c1.4-.8.63-1.94.72-2.98.06-.66.62-1.41.62-2.1,0-1-1.13-1.9-2.13-1.72-2.71.49-2.8,8.86.79,6.81Z"/>
  <path d="M68.89,44.65c.7.13,3.58.11,4.35.01.35-.04.83-.23,1.06-.49,1-1.09.3-2.73-1.12-2.99-.85-.15-3.38-.16-4.2.04-1.89.45-1.65,3.13-.09,3.42Z"/>
  <path d="M64.3,69.44c1.57-.35,1.97-2.88.36-3.38-.6-.19-4.17-.2-4.83-.05-1.66.37-1.67,2.93.05,3.38.72.19,3.69.22,4.41.05Z"/>
  <path d="M75.05,69.44c1.76-.4,1.9-3.05.21-3.43-.67-.15-4-.15-4.67,0-1.27.28-1.6,2.17-.7,2.99.68.62,4.25.64,5.16.44Z"/>
  <path d="M85.63,69.47c1.91-.29,2.11-2.74.68-3.35-.58-.25-4.28-.27-4.97-.11-1.6.36-1.53,2.74-.09,3.32.63.25,3.62.26,4.38.14Z"/>
  <path d="M79.34,44.55c.49.2,4.18.2,4.84.1,1.6-.25,1.84-2.54.38-3.25-.74-.36-3.8-.38-4.66-.21-1.75.35-1.89,2.81-.56,3.36Z"/>
  <path d="M92.09,66.01c-1.61.36-1.63,3.22.57,3.48,1.86.22,6.14.48,5.23-2.55-.39-1.3-4.72-1.17-5.81-.93Z"/>
  <path d="M67.97,81.99c-.53-.17-4.51-.2-5.03-.05-1.2.35-1.45,2.54-.15,3.17.98.48,4.58.5,5.49-.1,1.07-.7.94-2.63-.31-3.02Z"/>
  <path d="M56.48,80.65c-1.06-.94-1.59-2.19-3.26-1.82-.6.13-1.1.71-1.18,1.32-.3,2.37,5.73,6.4,6.19,2.86.21-1.62-.94-1.64-1.75-2.36Z"/>
  <path d="M78.72,81.99c-.53-.17-4.51-.2-5.03-.05-1.35.4-1.39,2.68.15,3.28.77.3,3.45.3,4.31.14,1.89-.34,2.18-2.87.58-3.38Z"/>
  <path d="M90.14,44.5c.94.4,3.65.4,4.13-.72,1.18-2.75-3.23-3.35-4.53-2.16-.8.73-.64,2.44.4,2.88Z"/>
  <path d="M106.83,13c-1.32-11.85-16.67-16.69-24.61-7.76-7.7,8.67-1.19,18.2,4.38,25.83.96,1.31,4.01,5.51,5.12,6.25.58.39,1,.42,1.68.2.63-.2,2.99-3.32,3.59-4.07,3.15-3.98,9.25-12.62,9.84-17.56.08-.69.08-2.2,0-2.9ZM93.68,18.16c-7.5,1.05-8.42-9.74-1.58-10.47,7.05-.75,7.84,9.6,1.58,10.47Z"/>
  <path d="M39.85,65.23c-.3-11.29-10.51-19.68-21.55-18.65-9.06.85-16.72,8.74-17.32,17.84-.55,8.3,8.44,21.42,13.27,28.1,1.2,1.67,3.45,5.09,4.81,6.36.87.82,1.81.76,2.68-.03,1.23-1.1,3.53-4.6,4.63-6.12,4.59-6.32,13.69-19.71,13.49-27.49ZM21.52,71.11c-9.92,1.22-10.95-13.02-1.99-13.99,9.4-1.02,10.62,12.92,1.99,13.99Z"/>
</svg>