<?xml version="1.0" encoding="UTF-8"?>
<svg id="Capa_1" xmlns="http://www.w3.org/2000/svg" version="1.1" viewBox="0 0 128.08 126.12">
  <!-- Generator: Adobe Illustrator 29.6.0, SVG Export Plug-In . SVG Version: 2.1.1 Build 142)  -->
  <defs>
    <style>
      .st0 {
        fill: #1eb8db;
      }

      .st1 {
        fill: #ffcd3b;
      }

      .st2 {
        fill: #fbba00;
      }
    </style>
  </defs>
  <g>
    <g>
      <path class="st2" d="M123.74,49.58v-9.34c0-2.75-2.23-4.98-4.98-4.98h-12.54c-2.75,0-4.98-2.23-4.98-4.98v-12.98c0-2.75-2.23-4.98-4.98-4.98H29.98c-2.75,0-4.98,2.23-4.98,4.98v12.98c0,2.75-2.23,4.98-4.98,4.98h-10.7c-2.75,0-4.98,2.23-4.98,4.98v9.34c0,2.75,2.23,4.98,4.98,4.98h5.65c2.75,0,4.98,2.23,4.98,4.98h0c0,2.75-2.23,4.98-4.98,4.98h-5.65c-2.75,0-4.98,2.23-4.98,4.98v19.73c0,2.75,2.23,4.98,4.98,4.98h3.35c2.75,0,4.98,2.23,4.98,4.98v9.62c0,2.75,2.23,4.98,4.98,4.98h22.64c2.75,0,4.98-2.23,4.98-4.98v-9.62c0-2.75,2.23-4.98,4.98-4.98h15.75c2.75,0,4.98,2.23,4.98,4.98v9.62c0,2.75,2.23,4.98,4.98,4.98h22.64c2.75,0,4.98-2.23,4.98-4.98v-9.62c0-2.75,2.23-4.98,4.98-4.98h5.19c2.75,0,4.98-2.23,4.98-4.98v-19.73c0-2.75-2.23-4.98-4.98-4.98h-9.32c-2.75,0-4.98-2.23-4.98-4.98h0c0-2.75,2.23-4.98,4.98-4.98h9.32c2.75,0,4.98-2.23,4.98-4.98Z"/>
      <path class="st1" d="M103.6,115.35h-22.64c-3.59,0-6.52-2.92-6.52-6.52v-9.62c0-1.9-1.55-3.45-3.45-3.45h-15.75c-1.9,0-3.45,1.55-3.45,3.45v9.62c0,3.59-2.92,6.52-6.52,6.52h-22.64c-3.59,0-6.52-2.92-6.52-6.52v-9.62c0-1.9-1.55-3.45-3.45-3.45h-3.35c-3.59,0-6.52-2.92-6.52-6.52v-19.73c0-3.59,2.92-6.52,6.52-6.52h5.65c1.9,0,3.45-1.55,3.45-3.45s-1.55-3.45-3.45-3.45h-5.65c-3.59,0-6.52-2.92-6.52-6.52v-9.34c0-3.59,2.92-6.52,6.52-6.52h10.7c1.9,0,3.45-1.55,3.45-3.45v-12.98c0-3.59,2.92-6.52,6.52-6.52h66.27c3.59,0,6.52,2.92,6.52,6.52v12.98c0,1.9,1.55,3.45,3.45,3.45h12.54c3.59,0,6.52,2.92,6.52,6.52v9.34c0,3.59-2.92,6.52-6.52,6.52h-9.33c-1.9,0-3.45,1.55-3.45,3.45s1.55,3.45,3.45,3.45h9.33c3.59,0,6.52,2.92,6.52,6.52v19.73c0,3.59-2.92,6.52-6.52,6.52h-5.19c-1.9,0-3.45,1.55-3.45,3.45v9.62c0,3.59-2.92,6.52-6.52,6.52ZM55.24,92.69h15.75c3.59,0,6.52,2.92,6.52,6.52v9.62c0,1.9,1.55,3.45,3.45,3.45h22.64c1.9,0,3.45-1.55,3.45-3.45v-9.62c0-3.59,2.92-6.52,6.52-6.52h5.19c1.9,0,3.45-1.55,3.45-3.45v-19.73c0-1.9-1.55-3.45-3.45-3.45h-9.33c-3.59,0-6.52-2.92-6.52-6.52s2.92-6.52,6.52-6.52h9.33c1.9,0,3.45-1.55,3.45-3.45v-9.34c0-1.9-1.55-3.45-3.45-3.45h-12.54c-3.59,0-6.52-2.92-6.52-6.52v-12.98c0-1.9-1.55-3.45-3.45-3.45H29.98c-1.9,0-3.45,1.55-3.45,3.45v12.98c0,3.59-2.92,6.52-6.52,6.52h-10.7c-1.9,0-3.45,1.55-3.45,3.45v9.34c0,1.9,1.55,3.45,3.45,3.45h5.65c3.59,0,6.52,2.92,6.52,6.52s-2.92,6.52-6.52,6.52h-5.65c-1.9,0-3.45,1.55-3.45,3.45v19.73c0,1.9,1.55,3.45,3.45,3.45h3.35c3.59,0,6.52,2.92,6.52,6.52v9.62c0,1.9,1.55,3.45,3.45,3.45h22.64c1.9,0,3.45-1.55,3.45-3.45v-9.62c0-3.59,2.92-6.52,6.52-6.52Z"/>
    </g>
    <path d="M103.6,116.95h-22.64c-4.48,0-8.12-3.64-8.12-8.12v-9.62c0-1.01-.83-1.84-1.84-1.84h-15.75c-1.01,0-1.84.83-1.84,1.84v9.62c0,4.48-3.64,8.12-8.12,8.12h-22.64c-4.48,0-8.12-3.64-8.12-8.12v-9.62c0-1.01-.83-1.84-1.84-1.84h-3.35c-4.48,0-8.12-3.64-8.12-8.12v-19.73c0-4.48,3.64-8.12,8.12-8.12h5.65c1.01,0,1.84-.83,1.84-1.84s-.83-1.84-1.84-1.84h-5.65c-4.48,0-8.12-3.64-8.12-8.12v-9.34c0-4.48,3.64-8.12,8.12-8.12h10.7c1.01,0,1.84-.83,1.84-1.84v-12.98c0-4.48,3.64-8.12,8.12-8.12h66.27c4.48,0,8.12,3.64,8.12,8.12v12.98c0,1.01.83,1.84,1.84,1.84h12.54c4.48,0,8.12,3.64,8.12,8.12v9.34c0,4.48-3.64,8.12-8.12,8.12h-9.32c-1.01,0-1.84.83-1.84,1.84s.83,1.84,1.84,1.84h9.32c4.48,0,8.12,3.64,8.12,8.12v19.73c0,4.48-3.64,8.12-8.12,8.12h-5.19c-1.01,0-1.84.83-1.84,1.84v9.62c0,4.48-3.64,8.12-8.12,8.12ZM55.24,91.08h15.75c4.48,0,8.12,3.64,8.12,8.12v9.62c0,1.01.83,1.84,1.84,1.84h22.64c1.01,0,1.84-.83,1.84-1.84v-9.62c0-4.48,3.64-8.12,8.12-8.12h5.19c1.01,0,1.84-.83,1.84-1.84v-19.73c0-1.01-.83-1.84-1.84-1.84h-9.32c-4.48,0-8.12-3.64-8.12-8.12s3.64-8.12,8.12-8.12h9.32c1.01,0,1.84-.83,1.84-1.84v-9.34c0-1.01-.83-1.84-1.84-1.84h-12.54c-4.48,0-8.12-3.64-8.12-8.12v-12.98c0-1.01-.83-1.84-1.84-1.84H29.98c-1.01,0-1.84.83-1.84,1.84v12.98c0,4.48-3.64,8.12-8.12,8.12h-10.7c-1.01,0-1.84.83-1.84,1.84v9.34c0,1.01.83,1.84,1.84,1.84h5.65c4.48,0,8.12,3.64,8.12,8.12s-3.64,8.12-8.12,8.12h-5.65c-1.01,0-1.84.83-1.84,1.84v19.73c0,1.01.83,1.84,1.84,1.84h3.35c4.48,0,8.12,3.64,8.12,8.12v9.62c0,1.01.83,1.84,1.84,1.84h22.64c1.01,0,1.84-.83,1.84-1.84v-9.62c0-4.48,3.64-8.12,8.12-8.12Z"/>
  </g>
  <g>
    <g>
      <circle class="st2" cx="42.25" cy="73.78" r="7.25"/>
      <path class="st1" d="M42.25,82.56c-4.85,0-8.79-3.94-8.79-8.79s3.94-8.79,8.79-8.79,8.79,3.94,8.79,8.79-3.94,8.79-8.79,8.79ZM42.25,68.06c-3.15,0-5.72,2.56-5.72,5.72s2.56,5.72,5.72,5.72,5.72-2.56,5.72-5.72-2.56-5.72-5.72-5.72Z"/>
    </g>
    <path d="M42.25,83.58c-5.4,0-9.8-4.4-9.8-9.8s4.4-9.8,9.8-9.8,9.8,4.4,9.8,9.8-4.4,9.8-9.8,9.8ZM42.25,69.07c-2.59,0-4.7,2.11-4.7,4.7s2.11,4.7,4.7,4.7,4.7-2.11,4.7-4.7-2.11-4.7-4.7-4.7Z"/>
  </g>
  <g>
    <g>
      <circle class="st2" cx="84.57" cy="73.78" r="7.25"/>
      <path class="st1" d="M84.57,82.56c-4.85,0-8.79-3.94-8.79-8.79s3.94-8.79,8.79-8.79,8.79,3.94,8.79,8.79-3.94,8.79-8.79,8.79ZM84.57,68.06c-3.15,0-5.72,2.56-5.72,5.72s2.56,5.72,5.72,5.72,5.72-2.56,5.72-5.72-2.56-5.72-5.72-5.72Z"/>
    </g>
    <path d="M84.57,83.58c-5.4,0-9.8-4.4-9.8-9.8s4.4-9.8,9.8-9.8,9.8,4.4,9.8,9.8-4.4,9.8-9.8,9.8ZM84.57,69.07c-2.59,0-4.7,2.11-4.7,4.7s2.11,4.7,4.7,4.7,4.7-2.11,4.7-4.7-2.11-4.7-4.7-4.7Z"/>
  </g>
  <g>
    <g>
      <rect class="st2" x="38.33" y="28.77" width="49.91" height="22.85"/>
      <path class="st1" d="M89.77,53.16h-52.98v-25.92h52.98v25.92ZM39.86,50.09h46.84v-19.78h-46.84v19.78Z"/>
    </g>
    <path d="M88.23,54.07h-49.91c-1.35,0-2.45-1.1-2.45-2.45v-22.85c0-1.35,1.1-2.45,2.45-2.45h49.91c1.35,0,2.45,1.1,2.45,2.45v22.85c0,1.35-1.1,2.45-2.45,2.45ZM40.78,49.17h45v-17.94h-45v17.94Z"/>
  </g>
  <g>
    <rect class="st0" x="39.44" y="29.99" width="22.62" height="20.41"/>
    <path d="M62.06,51.96h-22.62c-.86,0-1.56-.7-1.56-1.56v-20.41c0-.86.7-1.56,1.56-1.56h22.62c.86,0,1.56.7,1.56,1.56v20.41c0,.86-.7,1.56-1.56,1.56ZM41,48.84h19.5v-17.29h-19.5v17.29Z"/>
  </g>
  <g>
    <rect class="st0" x="64.04" y="29.99" width="22.62" height="20.41"/>
    <path d="M86.66,51.96h-22.62c-.86,0-1.56-.7-1.56-1.56v-20.41c0-.86.7-1.56,1.56-1.56h22.62c.86,0,1.56.7,1.56,1.56v20.41c0,.86-.7,1.56-1.56,1.56ZM65.6,48.84h19.5v-17.29h-19.5v17.29Z"/>
  </g>
</svg>