<?xml version="1.0" encoding="UTF-8"?>
<svg id="Capa_1" xmlns="http://www.w3.org/2000/svg" version="1.1" viewBox="0 0 95.9 107.32">
  <!-- Generator: Adobe Illustrator 29.6.0, SVG Export Plug-In . SVG Version: 2.1.1 Build 142)  -->
  <defs>
    <style>
      .st0 {
        fill: #fff;
      }
    </style>
  </defs>
  <path class="st0" d="M46.8,69.44c-3.27,0-5.92,2.65-5.92,5.92v3.15c0,5.88-4.77,10.65-10.65,10.65h-6.31c-5.88,0-10.65-4.77-10.65-10.65h0V28.82c0-5.88,4.77-10.65,10.65-10.65h6.31c5.88,0,10.65,4.77,10.65,10.65v3.15c0,3.27,2.65,5.92,5.92,5.92s5.92-2.65,5.92-5.92v-3.15c-.01-12.41-10.07-22.47-22.48-22.48h-6.31c-12.41.01-22.47,10.07-22.48,22.48v49.69c.01,12.41,10.07,22.47,22.48,22.48h6.31c12.41-.01,22.47-10.07,22.48-22.48v-3.15c0-3.27-2.65-5.92-5.92-5.92Z"/>
  <path class="st0" d="M90.42,43.9l-18.09-18.09c-2.31-2.31-6.06-2.31-8.37,0-2.31,2.31-2.31,6.06,0,8.37l13.45,13.45-48.37.11c-3.27,0-5.92,2.65-5.92,5.92s2.65,5.92,5.92,5.92h0l48.58-.11-13.67,13.67c-2.31,2.31-2.31,6.06,0,8.37,2.31,2.31,6.06,2.31,8.37,0l18.09-18.09c5.38-5.39,5.39-14.12.01-19.52Z"/>
</svg>