<?xml version="1.0" encoding="UTF-8"?>
<svg id="Capa_1" xmlns="http://www.w3.org/2000/svg" version="1.1" viewBox="0 0 100 100">
  <!-- Generator: Adobe Illustrator 29.6.0, SVG Export Plug-In . SVG Version: 2.1.1 Build 142)  -->
  <path d="M48.32,2.06l3-.06c37.94,1.19,60.15,44.43,37.81,75.83-20.22,28.42-63.22,26.43-80.68-3.73C-9.74,42.68,12.3,3.44,48.32,2.06ZM47.5,10.85C16.87,12.8.06,47.97,18.14,73.02c17.74,24.58,55.61,20.54,67.82-7.15,11.87-26.92-9.24-56.88-38.45-55.02Z"/>
  <path d="M49.54,41.31c2.27-.25,4.67,1.58,4.76,3.93l-.02,27.6c-1.31,4.36-6.83,4.58-8.48.32l-.08-28.31c.25-1.83,2.03-3.35,3.82-3.55Z"/>
  <path d="M49.12,23.93c6.19-1.06,7.07,8.31,1.15,8.73-5.44.38-6.25-7.86-1.15-8.73Z"/>
</svg>