<?xml version="1.0" encoding="UTF-8"?>
<svg id="Capa_1" xmlns="http://www.w3.org/2000/svg" version="1.1" viewBox="0 0 100 100">
  <!-- Generator: Adobe Illustrator 29.6.0, SVG Export Plug-In . SVG Version: 2.1.1 Build 142)  -->
  <defs>
    <style>
      .st0 {
        fill: #fff;
      }
    </style>
  </defs>
  <path class="st0" d="M69.92,30.08c-1.74-1.74-4.56-1.74-6.3,0l-13.62,13.62-13.62-13.62c-1.74-1.74-4.56-1.74-6.3,0-1.74,1.74-1.74,4.56,0,6.3l13.62,13.62-13.62,13.62c-1.74,1.74-1.74,4.56,0,6.3.87.87,2.01,1.3,3.15,1.3s2.28-.43,3.15-1.3l13.62-13.62,13.62,13.62c.87.87,2.01,1.3,3.15,1.3s2.28-.43,3.15-1.3c1.74-1.74,1.74-4.56,0-6.3l-13.62-13.62,13.62-13.62c1.74-1.74,1.74-4.56,0-6.3Z"/>
  <path class="st0" d="M50,2.25C23.63,2.25,2.25,23.63,2.25,50s21.38,47.75,47.75,47.75,47.75-21.38,47.75-47.75S76.37,2.25,50,2.25ZM50,88.3c-21.12,0-38.3-17.18-38.3-38.3S28.88,11.7,50,11.7s38.3,17.18,38.3,38.3-17.18,38.3-38.3,38.3Z"/>
</svg>