<?xml version="1.0" encoding="UTF-8"?>
<svg id="Capa_1" xmlns="http://www.w3.org/2000/svg" version="1.1" viewBox="0 0 100 100">
  <!-- Generator: Adobe Illustrator 29.6.0, SVG Export Plug-In . SVG Version: 2.1.1 Build 142)  -->
  <defs>
    <style>
      .st0 {
        fill: #fff;
      }
    </style>
  </defs>
  <path d="M86.44,2.19c15.31,1.64,10.77,20.65,11.37,31.08-.3,2.16-1.8,3.57-3.99,3.67-3.21.15-4.57-1.8-4.78-4.76-.39-5.64.63-12.27,0-17.75-.2-1.81-1.64-3.25-3.46-3.46-5.48-.62-12.12.4-17.75,0-2.33-.16-4.43-1.09-4.73-3.67-.31-2.61.82-4.41,3.34-5.12,6.36.5,13.75-.67,19.99,0Z"/>
  <path d="M2.2,86.44v-19.99c.7-2.52,2.51-3.65,5.12-3.34s3.51,2.41,3.67,4.73c.39,5.64-.62,12.27,0,17.75.2,1.81,1.65,3.25,3.46,3.46,5.48.62,12.12-.4,17.75,0,6.04.42,6.58,7.45,1.09,8.77-10.22-1.05-25.33,4.09-30.24-8.2l-.84-3.17Z"/>
  <path d="M33.58,2.19c2.49.67,3.65,2.56,3.34,5.12s-2.41,3.51-4.73,3.67c-5.64.39-12.27-.62-17.75,0-1.65.19-3.26,1.59-3.46,3.26-.66,5.44.41,12.3.01,17.94-.16,2.33-1.09,4.43-3.67,4.73s-4.44-.85-5.12-3.34c.5-6.36-.67-13.75,0-19.99.49-4.56,3.95-8.96,8.22-10.55l3.17-.84h19.99Z"/>
  <path class="st0" d="M13.59,2.19l-3.17.84c-4.27,1.59-7.73,6-8.22,10.55V2.19h11.39Z"/>
  <path d="M20.76,20.75c.6-.6,1.8-1.1,2.64-1.19,5.85.32,12.14-.42,17.94,0,2.87.21,4.2,1.76,4.39,4.58.33,4.72.37,12.51,0,17.2-.21,2.72-1.67,4.18-4.39,4.39-5.59.44-11.74-.35-17.39,0-2.57-.2-4.16-1.58-4.39-4.2-.5-5.78.39-12.27,0-18.13.09-.84.59-2.05,1.19-2.64ZM36.94,28.35h-8.59v8.59h8.59v-8.59Z"/>
  <path d="M79.28,20.75c.68.67,1.09,1.88,1.19,2.83.56,5.66-.42,12.18,0,17.94-.23,2.62-1.82,4-4.39,4.2-5.65-.35-11.8.44-17.39,0-2.72-.21-4.18-1.67-4.39-4.39.35-5.65-.44-11.8,0-17.39.2-2.6,1.56-4.16,4.2-4.39,5.73-.49,12.14.39,17.95,0,.95.09,2.15.53,2.82,1.2ZM71.69,28.35h-8.59v8.59h8.59v-8.59Z"/>
  <path d="M20.76,79.28c-.67-.67-1.11-1.87-1.2-2.82.39-5.8-.49-12.22,0-17.95.23-2.64,1.79-4,4.39-4.2,5.59-.44,11.74.35,17.39,0,2.72.21,4.18,1.67,4.39,4.39.44,5.59-.35,11.74,0,17.39-.2,2.57-1.58,4.16-4.2,4.39-5.75-.43-12.28.55-17.94,0-.95-.09-2.16-.51-2.83-1.19ZM36.94,63.09h-8.59v8.59h8.59v-8.59Z"/>
  <path d="M92.56,63.14c2.74-.4,4.96.93,5.27,3.78-1.05,9.54,3.71,24.15-6.93,29.49-6.14,3.08-16.92.62-23.8,1.43-5.37-.46-5.84-8.33.75-8.79,5.64-.39,12.27.62,17.75,0,1.81-.2,3.25-1.64,3.46-3.46.62-5.48-.4-12.12,0-17.75.16-2.24,1.02-4.34,3.51-4.71Z"/>
  <path d="M62.68,71.74c3.24-.39,9.89-.31,13.22-.06,1.77.13,3.48.74,4.2,2.52,1.16,2.83-.39,5.89-3.48,6.24-3.22.37-10.51.31-13.81.03-5.42-.47-5.58-8.09-.13-8.73Z"/>
  <path d="M58.2,54.36c2.57-.24,4.63,1.35,4.89,3.97.16,1.56.16,5.46-.46,6.82-1.36,2.97-6.31,3-7.79.13-.75-1.45-.74-6.76-.19-8.3s1.99-2.47,3.55-2.62Z"/>
  <path d="M71.27,54.36c1.47-.18,5.04-.21,6.39.23,3.47,1.13,3.8,6.42.54,8.01-1.34.66-5.24.64-6.8.48-5.29-.52-5.44-8.06-.14-8.72Z"/>
</svg>