<?xml version="1.0" encoding="UTF-8"?>
<svg id="Capa_1" xmlns="http://www.w3.org/2000/svg" version="1.1" viewBox="0 0 100 100">
  <!-- Generator: Adobe Illustrator 29.6.0, SVG Export Plug-In . SVG Version: 2.1.1 Build 142)  -->
  <defs>
    <style>
      .st0 {
        fill: #fff;
      }
    </style>
  </defs>
  <path class="st0" d="M36.82,98.06c-.21-.21-.45-.62-.5-.91l1.95-19.69c-1.99-.27-4.15.09-5.95-.91-1.25-.69-8.28-7.73-8.9-8.96-.89-1.76-.61-3.89-.83-5.81l-19.87,1.91c-.83-.33-1.38-1.06-1.39-1.97-.02-1.43.91-4.54,1.34-6.03,2.63-8.99,8.56-17.62,18.09-20.01,3.57-.9,7.27-1.04,10.93-.72,10.46-14.94,28.39-25.88,45.77-30.97,6.42-1.88,13.76-3.46,20.38-1.87.42.33.71,2.53.75,3.17,1.15,16.64-10.31,39.56-21.02,51.94-3.68,4.26-7.94,7.92-12.41,11.32-.07,1.53.19,3.1.12,4.69-.58,12.99-9.17,20.74-21.08,24.2-1.64.48-6.14,1.87-7.37.64ZM65.01,23.96c-13.78.88-12.38,22.06,1.67,20.83,13.29-1.16,11.9-21.7-1.67-20.83Z"/>
  <path class="st0" d="M17.54,66.95c3.07-.31.49,2.75-.05,4.31-3.19,9.12,4.59,14.18,12.66,10.05.92-.47,2.6-2.06,2.47.49-.21,4.18-3.84,8.13-7.57,9.65-6.07,2.46-13.48,2.69-19.95,3.3l-.35-.51c.71-6.61.85-14.36,3.65-20.52,1.57-3.45,5.3-6.37,9.14-6.76Z"/>
</svg>