<?xml version="1.0" encoding="UTF-8"?>
<svg id="Capa_1" xmlns="http://www.w3.org/2000/svg" version="1.1" viewBox="0 0 111.19 137.59">
  <!-- Generator: Adobe Illustrator 29.6.0, SVG Export Plug-In . SVG Version: 2.1.1 Build 142)  -->
  <defs>
    <style>
      .st0 {
        fill: #fdc300;
      }
    </style>
  </defs>
  <g>
    <path class="st0" d="M47.69,16.56c0-4.4,3.57-7.97,7.97-7.97s7.97,3.57,7.97,7.97-3.57,11.16-7.97,11.16-7.97-6.75-7.97-11.16Z"/>
    <path d="M94.66,82c-.23-1.34-2.08-12.16-4.51-26.24-1.23-7.17-3.79-12.27-7.59-15.18-2.97-2.27-5.7-2.4-6.53-2.38h-8.9c-1.99,0-3.6,1.61-3.6,3.6h0v3.44c-.33,3.13-1.65,4.5-2.72,5.1-.53.3-1.12.44-1.73.44h-12.2c-2.3,0-5.62.87-8.03,3.32-1.94,1.97-2.94,4.62-2.89,7.66.06,3.83,2.11,6.83,5.76,8.47,2.35,1.05,4.63,1.17,4.89,1.18h.07s18.86,0,18.86,0c.66,0,1.31.17,1.87.52.84.52,1.68,1.46,1.63,3.11-.04,1.71-.91,2.63-1.76,3.13-.54.32-1.17.48-1.8.48h-18.25c-2.9,0-5.44,1.01-7.34,2.92-2.73,2.74-3.46,6.61-3.65,8.64h-6.3c-2.02-.22-4.6-.83-5.78-2.51-1.14-1.61-.69-3.77-.64-4.02l.04-.12.04-.23s1.94-11.33,4.53-26.37c1.06-6.17,3.01-9.02,4.45-10.33.04-.03.08-.07.11-.1.87-.75,1.99-1.15,3.13-1.15h19.37c1.98,0,3.53-1.62,3.43-3.6h0s.01,0,.01,0v-10.03l6.49-6.49c2.53-2.53,3.93-5.9,3.93-9.48s-1.39-6.95-3.93-9.48c-2.53-2.53-5.9-3.93-9.48-3.93s-6.95,1.39-9.48,3.93c-5.23,5.23-5.23,13.73,0,18.96l6.49,6.49v6.43h-17.5c-.83-.02-3.56.11-6.53,2.38-3.81,2.9-6.36,8.01-7.59,15.18-2.42,14.08-4.28,24.9-4.51,26.24-.28,1.14-1.12,5.68,1.67,9.75,2.22,3.24,6,5.15,11.22,5.66l.18.02h10.21c1.99,0,3.6-1.61,3.6-3.6,0-.14,0-.27-.02-.4v-1.91s.02-1.79.71-3.41c.83-1.96,2-2.23,3.15-2.23h19.26c.19,0,.39-.02.58-.05h0c3.09-.5,8.98-3.36,9.17-10.58.19-7.28-5.74-10.35-8.91-10.96h0c-.22-.04-.45-.06-.68-.06h-19.66c-.12,0-.25,0-.37-.02-.84-.09-3.43-.53-3.46-2.54-.02-1.46.46-2.12.82-2.49.83-.85,2.22-1.16,2.89-1.16h12.94c.09,0,.17,0,.26,0h0c.47-.03,2.94-.3,5.47-2.15,2.17-1.6,4.77-4.68,5.2-10.43l4.69.03c.66,0,1.31.14,1.91.41.4.18.85.44,1.25.81,1.44,1.3,3.39,4.15,4.45,10.33,2.59,15.05,4.53,26.37,4.53,26.37l.03.18.05.18s.54,2.28-.61,3.96c-1.17,1.7-3.77,2.33-5.81,2.55h-10.59c-2.02,0-3.71,1.65-3.67,3.67s1.64,3.53,3.6,3.53h11.02l.18-.02c5.22-.51,9-2.42,11.22-5.66,2.79-4.07,1.94-8.6,1.67-9.75ZM51.27,11.43c1.17-1.17,2.73-1.82,4.38-1.82s3.21.64,4.38,1.82c1.17,1.17,1.82,2.73,1.82,4.38s-.64,3.21-1.82,4.38l-4.38,4.38-4.38-4.38c-2.42-2.42-2.42-6.35,0-8.77Z"/>
  </g>
  <g>
    <path d="M33.31,122.66l-4.21-12.45c-.11-.34-.43-.57-.79-.57h-6.26c-.35,0-.67.22-.78.55l-4.38,12.39c-.26.75-1.32.74-1.57-.01l-4.16-12.36c-.11-.34-.43-.57-.79-.57H3.86c-.57,0-.97.57-.78,1.11l8.25,23.45c.12.33.43.56.78.56h7.38c.35,0,.66-.22.78-.55l3.91-10.93c.26-.74,1.31-.73,1.57,0l3.75,10.91c.12.34.43.56.79.56h7.33c.35,0,.67-.22.78-.55l8.34-23.45c.19-.54-.21-1.11-.78-1.11h-5.95c-.35,0-.67.22-.79.56l-4.33,12.46c-.26.75-1.32.74-1.57,0Z"/>
    <path d="M69.96,112.05c-2.24-1.88-5.39-2.82-9.46-2.82-1.97,0-3.95.26-5.94.79-1.68.44-3.16,1.03-4.44,1.76-.38.22-.53.7-.34,1.09l2.17,4.41c.22.44.75.59,1.18.34.7-.4,1.5-.75,2.4-1.04,1.25-.4,2.47-.6,3.68-.6,1.85,0,3.2.38,4.05,1.13.54.48.9,1.08,1.1,1.81.14.52-.27,1.03-.81,1.03h-4.01c-2.56,0-4.66.3-6.31.9-1.65.6-2.87,1.47-3.65,2.61-.79,1.14-1.18,2.48-1.18,4.02,0,1.42.36,2.71,1.09,3.89.72,1.17,1.79,2.1,3.19,2.78,1.4.68,3.09,1.02,5.07,1.02,2.19,0,3.95-.44,5.3-1.32.26-.17.5-.35.72-.55.54-.48,1.38-.13,1.38.59v.03c0,.46.37.83.83.83h6.52c.46,0,.83-.37.83-.83v-13.09c0-3.98-1.12-6.91-3.35-8.79ZM62.84,128.91c-.79.48-1.67.72-2.66.72s-1.82-.24-2.41-.72c-.59-.48-.88-1.09-.88-1.83,0-.8.28-1.42.86-1.85.57-.43,1.56-.65,2.98-.65h2.96c.46,0,.83.37.83.83v1.15c0,.1-.02.19-.05.28-.34.92-.89,1.6-1.64,2.06Z"/>
    <path d="M87.28,110.68v-.2c0-.46-.37-.83-.83-.83h-6.76c-.46,0-.83.37-.83.83v23.45c0,.46.37.83.83.83h7.13c.46,0,.83-.37.83-.83v-10.69c0-2.19.56-3.77,1.67-4.74s2.56-1.46,4.35-1.46c.31,0,.62,0,.93.02.05,0,.11,0,.17.01.48.04.9-.35.9-.83v-6.17c0-.47-.4-.86-.87-.83-2,.1-3.72.58-5.16,1.41-.35.2-.67.42-.98.66-.55.43-1.36.06-1.36-.65Z"/>
    <path d="M100.53,105.58c.8.89,1.87,1.34,3.22,1.34s2.42-.46,3.22-1.39c.8-.93,1.2-2.08,1.2-3.47,0-1.3-.41-2.36-1.22-3.19-.81-.83-1.88-1.25-3.2-1.25s-2.42.44-3.22,1.32c-.8.88-1.2,1.98-1.2,3.31s.4,2.44,1.2,3.33Z"/>
    <rect x="99.36" y="109.65" width="8.79" height="25.12" rx=".83" ry=".83"/>
  </g>
</svg>