<?xml version="1.0" encoding="UTF-8"?>
<svg id="Capa_1" xmlns="http://www.w3.org/2000/svg" version="1.1" viewBox="0 0 111.19 137.59">
  <!-- Generator: Adobe Illustrator 29.6.0, SVG Export Plug-In . SVG Version: 2.1.1 Build 142)  -->
  <path d="M76.13,102.09l-32.18-.09c-6.88-1.65-9.69-8.55-11.83-14.05-2.95-7.61-8.49-23.68-9.01-31.33-.91-13.46,9.74-18.37,19.68-10.91,9.49,7.12,18.94,21.23,21.91,31.37l25.05,2.78c5.45.69,7.48,7.57,3.27,10.69-1.06.79-2.37.83-3.36,1.61l18.1,28.82c4.36,8.81-8.19,15.87-14.87,8.1-.76-.88-1.45-2.12-2.12-3.11-5.22-7.74-9.72-15.98-14.65-23.88Z"/>
  <path d="M29.48,105.6l38.15.06c11.65.75,12.42,15.89.4,17.15-13.12,1.38-28.92-.95-42.32.03-4.38-.37-8.22-3.47-8.81-7.45-.3-2.02.61-3.59.19-5.56L2.58,50.83c-.84-7.52,9.76-9.85,13.05-3.22l13.86,57.99Z"/>
  <path d="M29.34,5.2c20.08-1.14,22.18,31.53,2.51,33.42C10.17,40.71,8.53,6.39,29.34,5.2Z"/>
</svg>