<?xml version="1.0" encoding="UTF-8"?>
<svg id="Capa_1" xmlns="http://www.w3.org/2000/svg" version="1.1" viewBox="0 0 128.08 126.12">
  <!-- Generator: Adobe Illustrator 29.6.0, SVG Export Plug-In . SVG Version: 2.1.1 Build 142)  -->
  <path d="M60.93,2.66C109.05.13,141.01,52.1,116.21,93.81c-23.64,39.74-81.45,39.69-104.65-.4C-11.31,53.9,15.67,5.05,60.93,2.66ZM60.43,15.93c-17.44.63-33.12,12.4-39.86,28.19-.61,1.43-1.85,4.4-2.05,5.83-.29,2.12,3.49,4.04,5.26,4.22,3.05.32,12.04-4.29,15.58-5.5,18.48-6.32,32.92-5.66,50.69,2.36,3.48,1.57,11.3,6.86,14.53,6.84,1.6,0,5.77-1.75,5.67-3.69-.08-1.45-1.08-4.57-1.55-6.08-6.86-21.89-25.72-32.98-48.27-32.17ZM57.23,56.21c-5.77.91-4.74,9.22-2.11,12.8,3.83,5.19,13.4,5.29,17.39.28,2.98-3.74,3.99-12.46-2.33-13.14-2.61-.28-10.46-.33-12.96.06ZM49.11,83.98c-.89-.8-4.53-1.82-5.99-2.73-3.65-2.27-4.36-5.68-6.38-9.1-1.77,0-3.59-.15-5.36-.04-2.25.14-5.84.6-8.04,1.05-1.74.36-3.44,1.02-4.88,2.05,3.61,12.9,12.21,23.75,24.09,29.94.91.48,4.11,2.1,4.9,2.21,1.55.21,3.38-3.1,3.77-4.36.97-3.14.97-10.01.36-13.27-.27-1.42-1.43-4.83-2.46-5.77ZM75.07,107.65c.33.33.99.83,1.44.79,1.23-.12,5.1-1.84,6.42-2.45,10-4.63,18.76-13.36,23.22-23.46.29-.67,1.46-3.03,1.15-3.52-.23-.37-2.69-1.69-3.26-1.91-4.15-1.62-9.47-2.55-13.91-2.47-1.97,3.33-3.37,6.62-7.05,8.43-1.51.74-5.13,1.43-6.12,2.23-.81.65-2.09,3.13-2.48,4.16-1.55,4.12-2.74,14.92.58,18.22Z"/>
</svg>